<svg xmlns="http://www.w3.org/2000/svg" data-name="Layer 2" viewBox="0 0 48 48"><defs><linearGradient id="NJQhos1cctNsN3P6rtbg_a" x1="46.88" x2="7.68" y1="1.12" y2="40.32" gradientUnits="userSpaceOnUse"><stop offset="0" stop-color="#60e8fe"/><stop offset=".15" stop-color="#7fecfe"/><stop offset=".44" stop-color="#b5f4fe"/><stop offset=".68" stop-color="#ddfafe"/><stop offset=".88" stop-color="#f6fdfe"/><stop offset="1" stop-color="#fff"/></linearGradient></defs><path fill="url(#NJQhos1cctNsN3P6rtbg_a)" d="M46.12,18.72l-2.63-1.33-1.33-2.63c-.29-.58-1.12-.58-1.42,0l-.91,1.8v-4.56c0-.73-.22-1.41-.58-2,.36-.36.32-1-.18-1.25l-3.89-1.96-1.96-3.89c-.29-.58-1.12-.58-1.42,0l-1.96,3.89-2.72,1.37h-15.12c-2.11,0-3.84,1.73-3.84,3.84v23.99c0,2.11,1.73,3.84,3.84,3.84h23.99c2.11,0,3.84-1.73,3.84-3.84v-13.7l.91,1.8c.29.58,1.12.58,1.42,0l1.33-2.63,2.63-1.33c.58-.29.58-1.12,0-1.42Z"/><path fill="none" stroke="#10cfe3" stroke-linecap="round" stroke-width="3" d="M40.5,29.96v6.54c0,2.2-1.8,4-4,4H11.5c-2.2,0-4-1.8-4-4V11.5c0-2.2,1.8-4,4-4h9.28"/><line x1="22" x2="14" y1="18.04" y2="18.04" fill="none" stroke="#10cfe3" stroke-linecap="round" stroke-miterlimit="10" stroke-width="3"/><line x1="34" x2="14" y1="23.96" y2="23.96" fill="none" stroke="#10cfe3" stroke-linecap="round" stroke-miterlimit="10" stroke-width="3"/><line x1="34" x2="14" y1="29.96" y2="29.96" fill="none" stroke="#10cfe3" stroke-linecap="round" stroke-miterlimit="10" stroke-width="3"/><path fill="none" stroke="#10cfe3" stroke-linecap="round" stroke-linejoin="round" stroke-width="3" d="M35.19,6.79l3.89,1.96c.58.29.58,1.12,0,1.42l-3.89,1.96-1.96,3.89c-.29.58-1.12.58-1.42,0l-1.96-3.89-3.89-1.96c-.58-.29-.58-1.12,0-1.42l3.89-1.96,1.96-3.89"/><path fill="none" stroke="#10cfe3" stroke-linecap="round" stroke-linejoin="round" stroke-width="3" d="M42.16,14.76l1.33,2.63,2.63,1.33c.58.29.58,1.12,0,1.42l-2.63,1.33-1.33,2.63c-.29.58-1.12.58-1.42,0l-1.33-2.63-2.63-1.33c-.58-.29-.58-1.12,0-1.42l2.63-1.33,1.33-2.63c.29-.58,1.12-.58,1.42,0Z"/></svg>